<svg width="104" height="110" viewBox="0 0 104 110" fill="none" xmlns="http://www.w3.org/2000/svg">
<path fill-rule="evenodd" clip-rule="evenodd" d="M50.3445 0.0224415C61.8121 -0.491448 71.3203 7.92234 80.5229 14.7852C89.6082 21.5605 99.5596 28.4186 102.932 39.2398C106.288 50.0071 100.889 60.9399 98.3324 71.9247C95.4806 84.1797 97.7101 100.157 87.1613 107.013C76.5536 113.907 62.2933 107.268 50.3445 103.113C41.4698 100.027 36.387 91.483 28.3776 86.5699C19.2839 80.9915 3.74405 82.6925 0.490429 72.5311C-2.76713 62.3574 11.1252 54.7971 15.019 44.8497C18.5482 35.8336 16.0764 25.009 22.0689 17.4046C29.0889 8.49632 39.0152 0.530134 50.3445 0.0224415Z" fill="#E4DAF0" fill-opacity="0.4"/>
</svg>
