<svg width="167" height="167" viewBox="0 0 167 167" fill="none" xmlns="http://www.w3.org/2000/svg">
<circle cx="78.3982" cy="15.4577" r="10.9399" transform="rotate(42.5987 78.3982 15.4577)" fill="#B5A3CE" fill-opacity="0.25"/>
<circle cx="57.4181" cy="38.2746" r="10.9399" transform="rotate(42.5987 57.4181 38.2746)" fill="#B5A3CE" fill-opacity="0.25"/>
<circle cx="36.4379" cy="61.0914" r="10.9399" transform="rotate(42.5987 36.4379 61.0914)" fill="#B5A3CE" fill-opacity="0.25"/>
<circle cx="15.4578" cy="83.9082" r="10.9399" transform="rotate(42.5987 15.4578 83.9082)" fill="#B5A3CE" fill-opacity="0.25"/>
<circle cx="39.6167" cy="106.122" r="10.9399" transform="rotate(42.5987 39.6167 106.122)" fill="#B5A3CE" fill-opacity="0.25"/>
<circle cx="63.7756" cy="128.337" r="10.9399" transform="rotate(42.5987 63.7756 128.337)" fill="#B5A3CE" fill-opacity="0.25"/>
<circle cx="87.9346" cy="150.551" r="10.9399" transform="rotate(42.5987 87.9346 150.551)" fill="#B5A3CE" fill-opacity="0.25"/>
<circle cx="108.915" cy="127.734" r="10.9399" transform="rotate(42.5987 108.915 127.734)" fill="#B5A3CE" fill-opacity="0.25"/>
<circle cx="129.895" cy="104.917" r="10.9399" transform="rotate(42.5987 129.895 104.917)" fill="#B5A3CE" fill-opacity="0.25"/>
<circle cx="150.875" cy="82.1007" r="10.9399" transform="rotate(42.5987 150.875 82.1007)" fill="#B5A3CE" fill-opacity="0.25"/>
<circle cx="126.716" cy="59.8863" r="10.9399" transform="rotate(42.5987 126.716 59.8863)" fill="#B5A3CE" fill-opacity="0.25"/>
<circle cx="102.557" cy="37.6721" r="10.9399" transform="rotate(42.5987 102.557 37.6721)" fill="#B5A3CE" fill-opacity="0.25"/>
<circle cx="81.577" cy="60.4889" r="10.9399" transform="rotate(42.5987 81.577 60.4889)" fill="#B5A3CE" fill-opacity="0.25"/>
<circle cx="60.5968" cy="83.3056" r="10.9399" transform="rotate(42.5987 60.5968 83.3056)" fill="#B5A3CE" fill-opacity="0.25"/>
<circle cx="84.7558" cy="105.52" r="10.9399" transform="rotate(42.5987 84.7558 105.52)" fill="#B5A3CE" fill-opacity="0.25"/>
<circle cx="105.736" cy="82.7031" r="10.9399" transform="rotate(42.5987 105.736 82.7031)" fill="#B5A3CE" fill-opacity="0.25"/>
</svg>
