<svg width="329" height="310" viewBox="0 0 329 310" fill="none" xmlns="http://www.w3.org/2000/svg">
<path fill-rule="evenodd" clip-rule="evenodd" d="M164.636 10.9099C192.405 12.5039 224.254 0.125727 246.464 16.5099C268.935 33.0864 261.227 68.8175 275.389 92.6107C289.627 116.532 328.343 127.493 328.992 155.167C329.637 182.667 291.764 195.222 278.363 219.404C264.437 244.535 272.854 281.75 249.398 298.796C226.305 315.576 192.678 308.322 164.636 302.047C139.821 296.495 120.45 279.645 99.6491 265.289C80.5856 252.131 63.0664 238.362 47.6022 221.272C29.0238 200.741 -0.329184 182.586 0.00279156 155.167C0.335512 127.687 36.4668 114.461 49.1921 89.9605C62.9364 63.4978 52.2131 23.8069 77.0701 6.7861C101.426 -9.89159 134.958 9.2063 164.636 10.9099Z" fill="#C4C4C4"/>
</svg>
